<svg width="512" height="512" viewBox="0 0 512 512" fill="none" xmlns="http://www.w3.org/2000/svg">
  <rect width="512" height="512" rx="128" fill="#7c5cff"/>
  <path d="M256 128C176.5 128 112 192.5 112 272C112 326.5 145 374 192 396V432C192 441.9 199.1 449 209 449H303C312.9 449 320 441.9 320 432V396C367 374 400 326.5 400 272C400 192.5 335.5 128 256 128Z" fill="white"/>
  <circle cx="220" cy="260" r="16" fill="#7c5cff"/>
  <circle cx="292" cy="260" r="16" fill="#7c5cff"/>
  <path d="M256 300C280 300 300 285 300 268H212C212 285 232 300 256 300Z" fill="#7c5cff"/>
</svg>
